<?xml version="1.0" encoding="utf-8"?>
<!-- Generator: Adobe Illustrator 26.0.0, SVG Export Plug-In . SVG Version: 6.00 Build 0)  -->
<svg version="1.1" id="Слой_1" xmlns="http://www.w3.org/2000/svg" xmlns:xlink="http://www.w3.org/1999/xlink" x="0px" y="0px"
	 viewBox="0 0 729.9 473.8" style="enable-background:new 0 0 729.9 473.8;" xml:space="preserve">
<style type="text/css">
	.st0{fill:none;stroke:#000000;stroke-width:1.68;stroke-miterlimit:10;}
	.st1{font-family:'ArialMT';}
	.st2{font-size:13.54px;}
	.st3{fill:#2005E2;}
	.st4{font-size:18.62px;}
	.st5{font-family:'Arial-BoldMT';}
	.st6{font-size:20px;}
</style>
<g id="Слой_2_00000068642222464918936250000011662910330491222711_">
	<g id="Слой_1-2">
		<rect x="0.8" y="0.8" class="st0" width="728.3" height="472.1"/>
		<text transform="matrix(1 0 0 1 189.097 454.1854)" class="st1 st2">Apple</text>
		<text transform="matrix(1 0 0 1 370.1901 454.2852)" class="st1 st2">Saudi Aramco</text>
		<text transform="matrix(1 0 0 1 284.127 453.9784)" class="st1 st2">Microsoft</text>
		<text transform="matrix(1 0 0 1 490.1093 455.4755)" class="st1 st2">Alphabet</text>
		<text transform="matrix(1 0 0 1 605.4395 453.8162)" class="st1 st2">Tesla</text>
		<line class="st0" x1="156.8" y1="51.4" x2="691.7" y2="51.4"/>
		<line class="st0" x1="156.8" y1="177.9" x2="691.7" y2="177.9"/>
		<line class="st0" x1="156.8" y1="241.2" x2="691.7" y2="241.2"/>
		<line class="st0" x1="156.8" y1="304.5" x2="691.7" y2="304.5"/>
		<line class="st0" x1="156.8" y1="367.8" x2="691.7" y2="367.8"/>
		<line class="st0" x1="156.8" y1="431" x2="691.7" y2="431"/>
		<line class="st0" x1="156.8" y1="114.7" x2="691.7" y2="114.7"/>
		<rect x="192.1" y="126.3" class="st3" width="32.5" height="304.5"/>
		<rect x="295.6" y="172.4" class="st3" width="32.5" height="258.4"/>
		<rect x="399.1" y="137.9" class="st3" width="32.5" height="292.9"/>
		<rect x="501.9" y="242.7" class="st3" width="32.5" height="188.2"/>
		<rect x="605.4" y="334.9" class="st3" width="32.5" height="96"/>
		<text transform="matrix(1 0 0 1 67.4207 54.6379)" class="st1 st4">3 трлн. $</text>
		<text transform="matrix(1 0 0 1 51.8916 118.0199)" class="st1 st4">2.5 трлн. $</text>
		<text transform="matrix(1 0 0 1 67.4205 177.5945)" class="st1 st4">2 трлн. $</text>
		<text transform="matrix(1 0 0 1 51.8916 242.3546)" class="st1 st4">1.5 трлн. $</text>
		<text transform="matrix(1 0 0 1 67.4204 304.368)" class="st1 st4">1 трлн. $</text>
		<text transform="matrix(1 0 0 1 51.8919 370.7405)" class="st1 st4">0.5 трлн. $</text>
		<text transform="matrix(1 0 0 1 135.8 436.51)" class="st1 st4">0</text>
		<text transform="matrix(1 0 0 1 280.631 34.197)" class="st5 st6">Капитализация</text>
	</g>
</g>
</svg>
