<svg xmlns="http://www.w3.org/2000/svg" viewBox="0 0 729.94 473.77"><defs><style>.cls-1{fill:none;stroke:#000;stroke-miterlimit:10;stroke-width:1.68px;}.cls-2{font-size:13.54px;}.cls-10,.cls-2{font-family:Montserrat-Regular, Montserrat;}.cls-3{letter-spacing:-0.01em;}.cls-4{letter-spacing:0em;}.cls-5{letter-spacing:-0.01em;}.cls-6{letter-spacing:-0.01em;}.cls-7{letter-spacing:-0.01em;}.cls-8{letter-spacing:-0.05em;}.cls-9{fill:#2005e2;}.cls-10{font-size:18.62px;}.cls-11{letter-spacing:0em;}.cls-12{letter-spacing:0em;}.cls-13{letter-spacing:-0.02em;}.cls-14{letter-spacing:-0.01em;}</style></defs><g id="Слой_2" data-name="Слой 2"><g id="Слой_1-2" data-name="Слой 1"><rect class="cls-1" x="0.84" y="0.84" width="728.26" height="472.1"/><text class="cls-2" transform="translate(189.07 453.53)">Apple</text><text class="cls-2" transform="translate(369.3 453.53)">Saudi A<tspan class="cls-3" x="51.5" y="0">r</tspan><tspan x="56.81" y="0">a</tspan><tspan class="cls-4" x="64.79" y="0">m</tspan><tspan class="cls-5" x="79.18" y="0">c</tspan><tspan x="86.69" y="0">o</tspan></text><text class="cls-2" transform="translate(281.77 453.53)">Mic<tspan class="cls-6" x="24.19" y="0">r</tspan><tspan x="29.45" y="0">osoft</tspan></text><text class="cls-2" transform="translate(489.29 453.85)">A<tspan class="cls-7" x="9.71" y="0">k</tspan><tspan x="17.74" y="0">phabet</tspan></text><text class="cls-2" transform="translate(609.28 453.85)"><tspan class="cls-8">T</tspan><tspan x="7.03" y="0">esla</tspan></text><line class="cls-1" x1="156.79" y1="51.38" x2="691.69" y2="51.38"/><line class="cls-1" x1="156.79" y1="177.93" x2="691.69" y2="177.93"/><line class="cls-1" x1="156.79" y1="241.2" x2="691.69" y2="241.2"/><line class="cls-1" x1="156.79" y1="304.48" x2="691.69" y2="304.48"/><line class="cls-1" x1="156.79" y1="367.75" x2="691.69" y2="367.75"/><line class="cls-1" x1="156.79" y1="431.03" x2="691.69" y2="431.03"/><line class="cls-1" x1="156.79" y1="114.65" x2="691.69" y2="114.65"/><rect class="cls-9" x="192.07" y="126.33" width="32.46" height="304.54"/><rect class="cls-9" x="295.57" y="172.44" width="32.46" height="258.44"/><rect class="cls-9" x="399.07" y="137.94" width="32.46" height="292.94"/><rect class="cls-9" x="501.94" y="242.69" width="32.46" height="188.18"/><rect class="cls-9" x="605.44" y="334.9" width="32.46" height="95.97"/><text class="cls-10" transform="translate(38.24 56.72)">3000 мл<tspan class="cls-11" x="78.82" y="0">р</tspan><tspan x="91.53" y="0">д.</tspan></text><text class="cls-10" transform="translate(41.06 119.76)">2500 мл<tspan class="cls-11" x="77.1" y="0">р</tspan><tspan x="89.82" y="0">д.</tspan></text><text class="cls-10" transform="translate(40.59 183.27)"><tspan class="cls-12">2</tspan><tspan x="10.5" y="0">000 мл</tspan><tspan class="cls-11" x="78.82" y="0">р</tspan><tspan x="91.53" y="0">д.</tspan></text><text class="cls-10" transform="translate(45.3 246.78)">1500 мл<tspan class="cls-11" x="73.25" y="0">р</tspan><tspan x="85.96" y="0">д.</tspan></text><text class="cls-10" transform="translate(41.06 309.12)">1000 мл<tspan class="cls-11" x="75.04" y="0">р</tspan><tspan x="87.75" y="0">д.</tspan></text><text class="cls-10" transform="translate(51.89 373.81)">500 мл<tspan class="cls-11" x="66.53" y="0">р</tspan><tspan x="79.25" y="0">д.</tspan></text><text class="cls-10" transform="translate(135.8 436.51)">0</text><text class="cls-10" transform="translate(286.64 31.32)"><tspan class="cls-13">К</tspan><tspan x="12.77" y="0">апитал</tspan><tspan class="cls-14" x="80.4" y="0">и</tspan><tspan x="93" y="0">зация</tspan></text></g></g></svg>