<svg xmlns="http://www.w3.org/2000/svg" viewBox="0 0 729.94 473.77"><defs><style>.cls-1{fill:#ff781d;}.cls-2{font-size:13.54px;}.cls-11,.cls-2{font-family:Montserrat-Regular, Montserrat;}.cls-3{letter-spacing:-0.05em;}.cls-4{opacity:0.4;}.cls-16,.cls-5{fill:none;stroke-miterlimit:10;}.cls-5{stroke:#1d1d1b;stroke-width:1.69px;}.cls-6{letter-spacing:0em;}.cls-7{letter-spacing:-0.01em;}.cls-8{letter-spacing:0em;}.cls-9{letter-spacing:-0.01em;}.cls-10{letter-spacing:-0.01em;}.cls-11{font-size:18.62px;}.cls-12{letter-spacing:-0.01em;}.cls-13{letter-spacing:-0.01em;}.cls-14{letter-spacing:-0.01em;}.cls-15{letter-spacing:0em;}.cls-16{stroke:#000;stroke-width:1.68px;}</style></defs><g id="Слой_2" data-name="Слой 2"><g id="Слой_1-2" data-name="Слой 1"><rect class="cls-1" x="633.6" y="365.44" width="36.7" height="31.52"/><text class="cls-2" transform="translate(636.8 418.34)"><tspan class="cls-3">T</tspan><tspan x="7.03" y="0">esla</tspan></text><text/><g class="cls-4"><line class="cls-5" x1="119.71" y1="47.41" x2="706.83" y2="47.41"/><line class="cls-5" x1="119.71" y1="91.16" x2="706.83" y2="91.16"/><line class="cls-5" x1="119.71" y1="134.92" x2="706.83" y2="134.92"/><line class="cls-5" x1="119.71" y1="178.67" x2="706.83" y2="178.67"/><line class="cls-5" x1="119.71" y1="222.42" x2="706.83" y2="222.42"/><line class="cls-5" x1="119.71" y1="266.17" x2="706.83" y2="266.17"/><line class="cls-5" x1="119.71" y1="309.92" x2="706.83" y2="309.92"/><line class="cls-5" x1="119.71" y1="353.68" x2="706.83" y2="353.68"/><line class="cls-5" x1="119.71" y1="397.43" x2="706.83" y2="397.43"/></g><rect class="cls-1" x="153.73" y="178.2" width="36.7" height="218.76"/><rect class="cls-1" x="393.67" y="67.64" width="36.7" height="329.32"/><rect class="cls-1" x="271.35" y="251.12" width="36.7" height="145.84"/><rect class="cls-1" x="309.6" y="433.18" width="16.32" height="16.32"/><rect class="cls-1" x="513.16" y="252.06" width="36.7" height="145.84"/><text class="cls-2" transform="translate(35 51.81)">40 мл<tspan class="cls-6" x="40.71" y="0">р</tspan><tspan x="49.96" y="0">д.</tspan></text><text class="cls-2" transform="translate(151.68 415.39)">Apple</text><text class="cls-2" transform="translate(369.03 416.33)">Saudi A<tspan class="cls-7" x="51.5" y="0">r</tspan><tspan x="56.81" y="0">a</tspan><tspan class="cls-8" x="64.79" y="0">m</tspan><tspan class="cls-9" x="79.19" y="0">c</tspan><tspan x="86.69" y="0">o</tspan></text><text class="cls-2" transform="translate(344.56 448.32)">Чи<tspan class="cls-10" x="19.21" y="0">с</tspan><tspan x="26.7" y="0">тая прибыль</tspan></text><text class="cls-11" transform="translate(289.99 30.33)">Чи<tspan class="cls-12" x="26.42" y="0">с</tspan><tspan x="36.71" y="0">тая прибыль</tspan></text><text class="cls-2" transform="translate(261.76 416.33)">Mic<tspan class="cls-13" x="24.19" y="0">r</tspan><tspan x="29.45" y="0">osoft</tspan></text><text class="cls-2" transform="translate(502.63 416.96)">A<tspan class="cls-14" x="9.71" y="0">k</tspan><tspan x="17.74" y="0">phabet</tspan></text><text class="cls-2" transform="translate(38.14 95.17)"><tspan class="cls-10">3</tspan><tspan x="7.5" y="0">5 мл</tspan><tspan class="cls-6" x="37.96" y="0">р</tspan><tspan x="47.21" y="0">д.</tspan></text><text class="cls-2" transform="translate(35.63 138.53)">30 мл<tspan class="cls-6" x="39.4" y="0">р</tspan><tspan x="48.64" y="0">д.</tspan></text><text class="cls-2" transform="translate(38.77 181.89)">25 мл<tspan class="cls-6" x="38.15" y="0">р</tspan><tspan x="47.4" y="0">д.</tspan></text><text class="cls-2" transform="translate(37.51 225.25)"><tspan class="cls-15">2</tspan><tspan x="7.64" y="0">0 мл</tspan><tspan class="cls-6" x="39.4" y="0">р</tspan><tspan x="48.64" y="0">д.</tspan></text><text class="cls-2" transform="translate(39.4 268.61)">15 мл<tspan class="cls-6" x="35.35" y="0">р</tspan><tspan x="44.59" y="0">д.</tspan></text><text class="cls-2" transform="translate(40.02 311.97)">10 мл<tspan class="cls-6" x="36.65" y="0">р</tspan><tspan x="45.89" y="0">д.</tspan></text><text class="cls-2" transform="translate(45.67 355.33)">5 мл<tspan class="cls-6" x="30.46" y="0">р</tspan><tspan x="39.71" y="0">д.</tspan></text><text class="cls-2" transform="translate(87.69 398.69)">0</text><rect class="cls-16" x="0.84" y="0.84" width="728.26" height="472.1"/></g></g></svg>