<?xml version="1.0" encoding="utf-8"?>
<!-- Generator: Adobe Illustrator 26.0.0, SVG Export Plug-In . SVG Version: 6.00 Build 0)  -->
<svg version="1.1" id="Слой_1" xmlns="http://www.w3.org/2000/svg" xmlns:xlink="http://www.w3.org/1999/xlink" x="0px" y="0px"
	 viewBox="0 0 729.9 446.3" style="enable-background:new 0 0 729.9 446.3;" xml:space="preserve">
<style type="text/css">
	.st0{fill:#FF781D;}
	.st1{font-family:'Montserrat-Regular';}
	.st2{font-size:13.54px;}
	.st3{opacity:0.4;}
	.st4{fill:none;stroke:#1D1D1B;stroke-width:1.69;stroke-miterlimit:10;}
	.st5{font-size:18.62px;}
	.st6{fill:none;stroke:#000000;stroke-width:1.68;stroke-miterlimit:10;}
	.st7{font-family:'ArialMT';}
</style>
<g id="Слой_2_00000011713697257496173220000007779948059829535900_">
	<g id="Слой_1-2">
		<rect x="633.6" y="365.4" class="st0" width="36.7" height="31.5"/>
		<text transform="matrix(1 0 0 1 636.8 418.1483)" class="st1 st2">T</text>
		<text transform="matrix(1 0 0 1 643.83 418.1483)" class="st1 st2">esla</text>
		<g class="st3">
			<line class="st4" x1="119.7" y1="47.4" x2="706.8" y2="47.4"/>
			<line class="st4" x1="119.7" y1="91.2" x2="706.8" y2="91.2"/>
			<line class="st4" x1="119.7" y1="134.9" x2="706.8" y2="134.9"/>
			<line class="st4" x1="119.7" y1="178.7" x2="706.8" y2="178.7"/>
			<line class="st4" x1="119.7" y1="222.4" x2="706.8" y2="222.4"/>
			<line class="st4" x1="119.7" y1="266.2" x2="706.8" y2="266.2"/>
			<line class="st4" x1="119.7" y1="309.9" x2="706.8" y2="309.9"/>
			<line class="st4" x1="119.7" y1="353.7" x2="706.8" y2="353.7"/>
			<line class="st4" x1="119.7" y1="397.4" x2="706.8" y2="397.4"/>
		</g>
		<rect x="153.7" y="178.2" class="st0" width="36.7" height="218.8"/>
		<rect x="393.7" y="67.6" class="st0" width="36.7" height="329.3"/>
		<rect x="271.4" y="251.1" class="st0" width="36.7" height="145.8"/>
		<rect x="513.2" y="252.1" class="st0" width="36.7" height="145.8"/>
		<text transform="matrix(1 0 0 1 21.2971 49.3752)" class="st1 st2">40 млрд. $</text>
		<text transform="matrix(1 0 0 1 151.68 418.1485)" class="st1 st2">Apple</text>
		<text transform="matrix(1 0 0 1 285.0635 30.33)" class="st1 st5">Чистая прибыль</text>
		<text transform="matrix(1 0 0 1 260.7049 418.1481)" class="st1 st2">Microsoft</text>
		<text transform="matrix(1 0 0 1 502.63 418.1482)" class="st1 st2">Alphabet</text>
		<text transform="matrix(1 0 0 1 24.3313 92.7354)" class="st1 st2">35 млрд. $</text>
		<text transform="matrix(1 0 0 1 24.2097 132.4855)" class="st1 st2">30 млрд. $</text>
		<text transform="matrix(1 0 0 1 23.2625 179.4551)" class="st1 st2">25 млрд. $</text>
		<text transform="matrix(1 0 0 1 21.9539 220.7174)" class="st1 st2">20 млрд. $</text>
		<text transform="matrix(1 0 0 1 23.9784 263.7349)" class="st1 st2">15 млрд. $</text>
		<text transform="matrix(1 0 0 1 23.3283 307.4855)" class="st1 st2">10 млрд. $</text>
		<text transform="matrix(1 0 0 1 26.422 352.8951)" class="st1 st2">5 млрд. $</text>
		<text transform="matrix(1 0 0 1 25.7722 395.4648)" class="st1 st2">0 млрд. $</text>
		<rect x="0.8" y="0.8" class="st6" width="728.3" height="445.5"/>
		<text transform="matrix(1 0 0 1 370.9052 417.7789)" class="st7 st2">Saudi Aramco</text>
	</g>
</g>
</svg>
